<?xml version="1.0" standalone="no"?>
<!DOCTYPE svg PUBLIC "-//W3C//DTD SVG 20010904//EN"
 "http://www.w3.org/TR/2001/REC-SVG-20010904/DTD/svg10.dtd">
<svg version="1.0" xmlns="http://www.w3.org/2000/svg"
 width="1024.000000pt" height="1024.000000pt" viewBox="0 0 1024.000000 1024.000000"
 preserveAspectRatio="xMidYMid meet">
<metadata>
Created by potrace 1.14, written by Peter Selinger 2001-2017
</metadata>
<g transform="translate(0.000000,1024.000000) scale(0.100000,-0.100000)"
fill="#000000" stroke="none">
<path d="M5926 9935 c-47 -286 -252 -574 -591 -832 -96 -73 -277 -191 -400
-260 -137 -78 -244 -126 -575 -260 -434 -175 -828 -354 -1015 -461 -81 -46
-257 -157 -285 -179 -8 -6 -42 -32 -76 -57 -33 -25 -99 -83 -146 -128 -215
-210 -321 -409 -345 -652 -11 -110 -5 -921 7 -1001 33 -212 149 -396 353 -561
44 -35 75 -64 70 -64 -4 0 -46 19 -93 43 -166 84 -426 177 -565 201 -16 3 -41
8 -55 11 -83 18 -235 41 -340 52 -144 15 -669 7 -699 -11 -3 -2 -30 -7 -59
-10 -30 -3 -75 -11 -100 -16 -73 -16 -261 -80 -275 -94 -9 -10 -12 -416 -11
-1902 1 -1039 2 -1898 3 -1910 l1 -21 1148 2 1147 1 260 103 c143 57 400 160
570 228 171 68 380 151 465 184 202 79 204 80 188 94 -7 7 -96 48 -198 93
-272 118 -333 146 -570 264 -207 102 -400 205 -410 218 -3 4 -13 9 -22 13 -14
5 -231 144 -263 169 -205 157 -314 261 -398 381 -26 37 -47 70 -47 73 0 2 -11
22 -25 44 l-25 39 62 92 c131 197 372 401 683 579 103 59 403 212 505 258 44
19 246 108 342 150 l47 20 293 -147 c310 -157 499 -261 663 -368 295 -192 492
-399 614 -642 67 -135 66 -135 97 10 27 126 25 368 -5 513 -78 383 -294 670
-704 939 -62 41 -120 76 -129 80 -28 10 -21 21 25 44 80 39 319 182 395 238
260 187 398 407 418 666 3 42 6 247 7 455 0 450 -6 546 -45 672 -59 197 -179
357 -383 516 -90 71 -285 199 -408 270 -27 16 -45 32 -40 36 4 4 49 29 98 55
50 26 106 56 125 67 19 12 53 31 75 42 128 69 300 192 393 280 144 136 234
316 258 511 8 72 12 823 3 880 l-5 40 -8 -50z m-1696 -2199 c0 -2 -7 -7 -16
-10 -8 -3 -12 -2 -9 4 6 10 25 14 25 6z m-44 -25 c-3 -5 49 -32 117 -61 67
-29 155 -67 195 -86 41 -19 76 -34 79 -34 3 0 89 -41 191 -91 325 -159 558
-319 717 -492 76 -83 228 -298 216 -307 -3 -3 -28 -38 -56 -79 -93 -137 -304
-332 -511 -473 -232 -158 -439 -265 -776 -401 l-207 -84 -73 29 c-372 149
-541 233 -755 374 -285 188 -471 359 -627 578 l-56 79 26 46 c75 127 192 251
392 413 139 112 526 329 842 472 152 69 164 74 225 100 69 29 68 29 61 17z
m-2306 -2206 c254 -18 432 -64 729 -190 116 -49 439 -209 456 -226 7 -7 4 -14
-7 -20 -68 -38 -240 -179 -328 -268 -185 -188 -277 -358 -316 -591 -7 -44 -7
-829 1 -929 13 -176 77 -319 221 -492 107 -128 287 -278 479 -397 95 -58 355
-193 490 -255 l80 -36 -1341 0 c-1270 -1 -1342 0 -1346 17 -3 13 -2 3239 1
3318 1 17 11 22 69 33 126 24 187 31 322 37 74 4 136 8 138 9 5 4 258 -3 352
-10z"/>
<path d="M6838 6465 c-27 -6 -48 -10 -48 -9 0 4 -103 -32 -140 -49 -123 -56
-286 -204 -356 -323 -73 -123 -137 -309 -159 -459 -4 -22 -8 -51 -11 -65 -19
-106 -22 -413 -11 -1180 6 -433 -5 -565 -68 -840 -2 -8 -15 -48 -29 -88 -153
-444 -655 -874 -1366 -1172 -69 -28 -138 -58 -155 -65 -16 -7 -86 -34 -155
-60 -118 -45 -181 -68 -495 -180 -225 -80 -350 -128 -364 -141 -11 -10 393
-12 1980 -10 1097 2 2012 6 2034 10 22 4 72 14 110 22 39 9 77 17 85 19 90 19
252 104 354 185 214 170 370 409 626 955 85 181 179 364 238 460 160 263 350
431 575 504 24 8 35 17 30 24 -91 157 -223 273 -348 306 -113 30 -269 33 -361
6 -56 -16 -152 -63 -180 -89 -181 -165 -272 -323 -419 -731 -194 -537 -379
-868 -625 -1115 -102 -103 -195 -173 -316 -237 l-88 -47 -171 -4 -170 -4 79
42 c379 198 660 526 878 1024 71 163 118 295 258 717 158 476 205 583 326 739
87 113 191 208 301 275 77 47 167 90 208 101 14 3 25 12 25 18 0 19 -139 152
-211 203 -106 74 -250 140 -349 160 -73 14 -214 18 -275 8 -283 -50 -466 -252
-602 -664 -47 -144 -71 -237 -157 -627 -75 -335 -132 -542 -181 -648 -7 -17
-28 -65 -45 -106 -57 -138 -244 -473 -279 -500 -4 -3 -14 -16 -23 -30 -89
-141 -335 -384 -506 -500 -90 -61 -258 -144 -354 -175 -78 -26 -96 -27 -313
-31 l-230 -4 95 34 c105 37 275 109 330 139 19 10 53 29 75 40 70 38 238 154
295 204 156 136 274 272 395 452 78 117 200 356 228 446 30 95 76 289 92 387
3 18 10 58 15 88 5 30 12 75 15 100 3 25 10 72 15 105 5 33 11 83 15 110 3 28
8 64 10 80 3 17 14 98 25 180 11 83 22 160 24 171 3 12 7 39 10 60 13 83 27
162 42 229 8 39 16 79 18 90 13 71 94 336 107 350 5 5 9 15 9 22 0 27 94 207
147 282 71 99 185 208 270 258 85 49 109 59 211 93 l83 27 -63 55 c-279 244
-569 376 -847 383 -69 1 -135 -2 -163 -10z"/>
<path d="M4135 4449 c-439 -30 -762 -444 -688 -883 52 -306 287 -550 597 -619
83 -19 226 -19 307 0 72 16 187 59 209 76 8 7 26 19 40 25 43 22 142 111 193
175 203 253 217 616 35 892 -128 193 -315 303 -578 338 -8 1 -60 -1 -115 -4z"/>
<path d="M1930 1488 c-135 -21 -224 -110 -256 -258 -6 -29 -6 -130 1 -178 7
-55 55 -140 100 -180 23 -20 71 -52 106 -71 135 -71 155 -92 149 -151 -6 -68
-54 -95 -153 -87 -57 5 -79 13 -132 46 -39 24 -65 35 -67 28 -2 -7 -3 -68 -3
-137 0 -124 0 -125 26 -137 94 -45 287 -54 388 -18 63 23 147 98 174 156 30
65 45 142 43 221 -2 64 -8 87 -37 145 -39 77 -84 117 -207 180 -110 56 -140
102 -111 166 15 33 45 49 93 49 52 0 88 -14 149 -58 27 -20 51 -34 52 -32 2 2
7 61 10 130 l6 127 -38 19 c-75 38 -196 54 -293 40z"/>
<path d="M5460 1488 c-90 -13 -149 -41 -208 -100 -111 -109 -163 -279 -157
-513 5 -213 50 -349 147 -445 73 -72 143 -102 250 -106 284 -11 442 209 433
601 -4 154 -22 244 -70 341 -82 166 -225 247 -395 222z m135 -144 c88 -34 141
-126 170 -294 13 -74 7 -254 -10 -330 -14 -62 -22 -84 -45 -130 -35 -69 -64
-96 -126 -119 -153 -56 -286 56 -322 269 -15 91 -8 310 12 390 17 65 70 170
86 170 4 0 15 8 26 18 40 37 146 50 209 26z"/>
<path d="M880 1473 c-147 -4 -160 -7 -154 -36 3 -12 5 -264 5 -559 l0 -538
144 2 144 1 3 31 c2 17 1 58 -2 91 -3 33 -5 273 -5 532 1 318 -3 473 -10 475
-5 2 -62 2 -125 1z"/>
<path d="M3367 1472 l-177 -2 6 -188 c8 -209 8 -405 3 -722 l-4 -215 138 -2
c100 -1 137 1 138 10 1 7 0 101 -1 210 l-1 199 22 -4 c18 -2 31 -28 81 -163
32 -88 66 -180 76 -205 l18 -45 94 0 c133 -1 190 5 190 19 0 6 -16 45 -36 86
-27 57 -119 272 -160 375 -3 6 9 18 26 28 117 70 163 324 86 475 -54 105 -108
132 -296 145 -14 1 -105 1 -203 -1z m237 -251 c20 -17 38 -84 33 -119 -14 -78
-45 -109 -121 -118 l-46 -6 0 130 c0 90 4 132 12 134 20 7 106 -8 122 -21z"/>
<path d="M4500 1472 l-65 -3 2 -547 c1 -301 2 -555 3 -564 0 -14 11 -17 76
-16 l75 1 -4 283 c-2 156 -1 284 2 284 6 0 225 -358 302 -493 l44 -77 88 2
c67 1 87 5 87 16 0 7 -58 104 -128 215 -71 111 -154 246 -186 299 l-58 97 123
183 c68 101 142 212 166 248 l43 65 -77 3 c-42 2 -80 -1 -84 -5 -4 -4 -50 -75
-102 -158 -127 -204 -205 -323 -215 -329 -5 -3 -7 107 -5 243 2 192 0 250 -10
252 -6 2 -41 3 -77 1z"/>
<path d="M6140 1470 l-65 -5 2 -85 c2 -82 3 -804 2 -945 -1 -38 -1 -76 0 -83
1 -9 56 -12 251 -10 217 2 250 4 251 18 0 8 3 41 5 73 l4 57 -176 -3 c-114 -2
-178 1 -182 8 -7 11 -5 665 2 851 6 140 12 132 -94 124z"/>
<path d="M6763 1472 c-58 -3 -66 -14 -58 -77 1 -16 3 -261 4 -543 l1 -513 63
2 c96 1 94 0 91 72 -3 79 -7 479 -5 492 2 13 36 -41 207 -325 l140 -235 82 -1
c44 0 86 2 92 6 8 5 -23 61 -89 164 -139 216 -274 439 -274 452 0 6 62 104
139 218 76 113 149 223 161 244 22 36 22 37 2 42 -11 3 -46 3 -79 2 l-60 -4
-37 -61 c-103 -170 -272 -428 -280 -425 -4 2 -8 113 -8 247 0 277 11 249 -92
243z"/>
<path d="M7791 1470 l-74 -5 -20 -75 c-24 -92 -276 -1021 -281 -1036 -3 -7 12
-10 42 -8 26 1 59 2 74 3 25 1 27 5 63 159 21 86 42 163 47 170 8 9 53 12 163
12 150 0 153 0 158 -22 3 -13 15 -68 27 -123 13 -55 28 -122 34 -150 l12 -50
78 2 c43 0 79 3 81 5 2 2 -23 109 -56 238 -33 129 -89 352 -125 495 -36 143
-72 288 -81 323 -9 34 -21 62 -27 63 -6 0 -18 1 -26 2 -8 1 -48 0 -89 -3z m33
-201 c7 -35 33 -147 56 -249 23 -102 43 -189 43 -195 2 -8 -213 -15 -239 -7
-7 2 11 92 54 263 35 143 66 258 68 256 2 -2 10 -32 18 -68z"/>
<path d="M8375 1472 c-152 -2 -211 -6 -217 -15 -4 -6 -8 -38 -8 -70 l0 -58
113 1 c61 1 118 1 124 1 10 -1 12 -110 11 -493 l-2 -493 78 0 79 0 1 495 1
495 117 -2 c83 -2 117 1 121 10 2 7 4 39 3 71 l-1 59 -105 1 c-58 1 -199 0
-315 -2z"/>
<path d="M9070 1470 l-75 -5 -12 -38 c-7 -21 -15 -48 -17 -60 -6 -29 -75 -290
-121 -452 -19 -71 -47 -173 -62 -225 -14 -52 -41 -149 -59 -214 -25 -85 -31
-122 -23 -127 6 -3 30 -5 53 -4 22 2 50 4 62 4 18 1 25 19 59 171 l38 170 160
-2 161 -3 7 -30 c4 -16 22 -94 40 -172 l33 -143 70 4 c39 2 75 4 80 5 13 2
-12 114 -92 411 -23 82 -82 316 -87 340 -11 55 -88 348 -95 359 -9 17 -19 18
-120 11z m28 -197 c18 -71 102 -445 102 -452 0 -7 -250 -9 -250 -1 -1 19 124
500 129 500 4 0 13 -21 19 -47z"/>
<path d="M1215 908 l0 -563 145 0 145 0 -3 150 c-3 178 -3 872 0 933 l3 42
-145 0 -145 0 0 -562z"/>
<path d="M2448 943 c1 -291 2 -545 2 -565 l0 -38 295 2 c163 0 297 4 300 7 2
4 7 61 11 128 l7 121 -167 -5 -166 -5 0 109 0 110 103 0 c56 0 118 1 137 2
l35 1 3 115 4 115 -144 -2 -143 -3 0 98 c-1 53 2 97 5 98 3 0 69 1 147 2 78 1
144 5 147 8 3 3 7 56 9 117 l4 112 -296 0 -296 0 3 -527z"/>
</g>
</svg>
